<?xml version="1.0" encoding="UTF-8"?>
<svg width="1200pt" height="1200pt" version="1.1" viewBox="0 0 1200 1200" xmlns="http://www.w3.org/2000/svg">
 <path fill="white" d="m936 276h-672c-8.4766 0.007812-16.68 3.0039-23.164 8.4648-6.4805 5.4609-10.832 13.031-12.277 21.383-1.4492 8.3516 0.09375 16.949 4.3633 24.273l336 576c6.4531 11.043 18.285 17.832 31.078 17.832s24.625-6.7891 31.078-17.832l164.64-282.12h-83.398l-112.32 192-273.36-468h546.72l-70.078 120h-191.28v72h212.04c12.805-0.007812 24.637-6.8164 31.082-17.879l111.96-192h-0.003906c4.2695-7.3242 5.8125-15.922 4.3633-24.273-1.4453-8.3516-5.7969-15.922-12.277-21.383-6.4844-5.4609-14.688-8.457-23.164-8.4648z"/>
</svg>